<svg width="124" height="89" viewBox="0 0 124 89" fill="none" xmlns="http://www.w3.org/2000/svg">
<path d="M1 87.8629C5.15699 78.9805 17.8358 66.4068 42.1542 78.1731C49.6368 84.0562 65.2879 94.9919 80.5025 69.5214C83.3085 62.254 75.4518 53.9484 66.4727 60.8697C62.3157 66.1761 60.2995 77.8962 85.4909 82.3259C95.4677 84.0802 116.719 72.1702 101.391 41.49C82.3732 3.4227 62.7314 5.15303 57.743 1.00023" stroke="red" stroke-opacity="0.9" stroke-linecap="round" stroke-dasharray="5 5"/>
<g clip-path="url(#clip0_407_11504)">
<path d="M90.7118 51.2271L88.4403 52.2624L89.7047 55.795C89.8312 56.1485 90.1953 56.3158 90.5179 56.1688L91.6211 55.666C91.9437 55.519 92.1026 55.1132 91.9761 54.7597L90.7118 51.2271Z" fill="rgb(233 63 59)"/>
<path d="M95.7815 50.9503L93.51 51.9856L94.7744 55.5181C94.9009 55.8716 95.265 56.039 95.5876 55.8919L96.6908 55.3891C97.0134 55.2421 97.1723 54.8363 97.0458 54.4828L95.7815 50.9503Z" fill="rgb(233 63 59)"/>
<path d="M114.914 40.1962L117.186 39.1608L118.45 42.6934C118.577 43.0469 118.418 43.4526 118.095 43.5997L116.992 44.1025C116.669 44.2496 116.305 44.0822 116.179 43.7287L114.914 40.1962Z" fill="rgb(233 63 59)"/>
<path d="M110.829 43.8475L113.101 42.8121L114.365 46.3447C114.492 46.6982 114.333 47.1039 114.01 47.251L112.907 47.7538C112.585 47.9008 112.22 47.7335 112.094 47.3799L110.829 43.8475Z" fill="rgb(233 63 59)"/>
<path d="M117.66 32.8004L101.753 43.1723L83.9241 48.1767C83.2993 48.3521 82.9493 49.0958 83.1836 49.7504L83.9603 51.9206C84.3081 52.8922 85.1558 53.5246 86.1081 53.5228L105.445 53.4872L119.379 38.3585C120.066 37.6134 120.286 36.4941 119.939 35.5225L119.162 33.3524C118.928 32.6977 118.218 32.4369 117.66 32.8004Z" fill="#EDF7FE"/>
<path d="M103.213 22.3519L95.9174 27.0694L87.7652 29.3925C87.498 29.4686 87.3488 29.787 87.4491 30.0672L87.8478 31.1811C88.1165 31.9317 88.7814 32.4104 89.5171 32.3828L97.7096 32.0765L103.793 25.8764C104.339 25.3196 104.523 24.4542 104.254 23.7036L103.855 22.5896C103.755 22.3095 103.452 22.1972 103.213 22.3519Z" fill="#E6F4FF"/>
<path d="M103.793 25.8764L101.709 27.9996L101.337 26.9604C101.013 26.0551 100.033 25.6926 99.2608 26.1922L96.2909 28.1128L96.2875 28.1036L87.6298 30.572L87.4491 30.0671C87.3489 29.7869 87.498 29.4685 87.7652 29.3924L95.9174 27.0693L103.213 22.3518C103.452 22.1971 103.755 22.3093 103.855 22.5895L104.254 23.7036C104.523 24.4542 104.339 25.3196 103.793 25.8764Z" fill="#BAD5E5"/>
<path d="M120.099 36.4117C120.101 36.4913 120.1 36.5709 120.095 36.6503C120.085 36.8131 120.059 36.9742 120.022 37.1322C119.914 37.5866 119.698 38.013 119.379 38.3585L117.354 40.5577L117.225 40.6974C117.37 40.151 117.354 39.5586 117.159 39.0129L116.382 36.8428C116.148 36.1882 115.439 35.9274 114.881 36.2909L102.24 44.5328L83.2423 49.9144L83.1836 49.7504C83.0296 49.3203 83.1291 48.8527 83.3918 48.5322C83.5289 48.3648 83.7098 48.2369 83.924 48.1768L95.5077 44.9253L101.753 43.1723L107.325 39.5392L117.661 32.8004C117.852 32.6758 118.061 32.6261 118.262 32.639C118.649 32.6638 119.008 32.9223 119.162 33.3524L119.939 35.5225C120.042 35.8103 120.094 36.1113 120.099 36.4117Z" fill="#BAD5E5"/>
<path d="M96.6357 25.2325C95.8039 24.1907 94.2273 24.9093 94.27 26.3108C94.3649 29.4257 94.8388 32.5039 95.679 35.4626L101.453 55.7937C102.308 58.8015 104.189 61.3036 106.704 62.7756L107.389 63.1766C108.345 63.7357 109.543 63.1898 109.886 62.0388L110.132 61.2132C111.036 58.1833 110.85 54.9083 109.613 52.0747L101.255 32.9213C100.038 30.1342 98.4848 27.548 96.6357 25.2325Z" fill="#4754a4"/>
<path d="M110.132 61.2132L109.886 62.0388C109.543 63.1897 108.345 63.7357 107.389 63.1766L106.704 62.7755C106.695 62.7703 106.686 62.7647 106.677 62.7595C107.57 59.7386 107.381 56.4769 106.149 53.6534L95.1334 24.852C95.6246 24.6321 96.2222 24.7145 96.6357 25.2325C98.4846 27.5479 100.038 30.1341 101.255 32.9213L109.613 52.0746C110.85 54.9083 111.036 58.1831 110.132 61.2132Z" fill="#4754a4"/>
<path d="M104.553 58.574C104.291 58.4817 104.15 58.1701 104.239 57.8781C104.327 57.5861 104.612 57.4241 104.875 57.5162C106.306 58.0188 107.491 57.4787 108.211 55.9957C108.27 55.8749 108.363 55.7866 108.469 55.7381C108.602 55.6775 108.756 55.6793 108.892 55.7573C109.135 55.8978 109.226 56.2324 109.093 56.5045C108.142 58.4645 106.444 59.2383 104.553 58.574Z" fill="white"/>
<path d="M108.892 55.7572C109.135 55.8977 109.226 56.2322 109.094 56.5044C108.628 57.4632 107.984 58.1372 107.226 58.4989C107.214 58.1029 107.184 57.7082 107.137 57.316C107.56 57.0309 107.923 56.5889 108.211 55.9956C108.27 55.8748 108.363 55.7865 108.469 55.7381C108.602 55.6774 108.756 55.6791 108.892 55.7572Z" fill="white"/>
</g>
<defs>
<clipPath id="clip0_407_11504">
<rect width="33.8451" height="36.8066" fill="white" transform="matrix(0.908592 0.417686 0.364736 -0.931111 79 51.2709)"/>
</clipPath>
</defs>
</svg>
